# xmcd
#
# Track frame offsets: 
#        150
#        16763
#        40226
#        57375
#        77060
#        95029
#        117229
#        136089
#        160070
#        185384
#        199397
#
# Disc length: 3485 seconds
#
# Revision: 3
# Processed by: cddbd v1.5.1PL0 Copyright (c) Steve Scherf et al.
# Submitted via: ExactAudioCopy v0.90b4
#
DISCID=8d0d9b0b
DTITLE=Beck - Midnite Vultures
DYEAR=1900
DGENRE=Alternative
TTITLE0=x Laws
TTITLE1=Nicotine and Gravy
TTITLE2=Mixed Bizness
TTITLE3=Get Real Paid
TTITLE4=Hollywood Freaks
TTITLE5=Peaches and Cream
TTITLE6=Broken Train
TTITLE7=Milk and Honey
TTITLE8=Beautiful Way
TTITLE9=Pressure Zone
TTITLE10=Debra
EXTD=
EXTT0=
EXTT1=
EXTT2=
EXTT3=
EXTT4=
EXTT5=
EXTT6=
EXTT7=
EXTT8=
EXTT9=
EXTT10=
PLAYORDER=
